<?xml version="1.0" encoding="UTF-8"?>
<svg version="1.1" xmlns="http://www.w3.org/2000/svg" width="512" height="512">
<path d="M0 0 C3.51223805 0.00849481 7.02283366 -0.02036161 10.53491211 -0.05200195 C30.81381421 -0.11549307 50.92242065 2.03967339 70.47045898 7.63354492 C71.52845703 7.9290625 72.58645508 8.22458008 73.67651367 8.52905273 C126.31419214 23.65554161 175.92054941 55.8201323 208.34545898 100.44604492 C208.82821289 101.10040527 209.3109668 101.75476563 209.80834961 102.42895508 C230.08083959 129.98158508 244.65675004 160.34794528 253.15795898 193.50854492 C253.43607422 194.58257568 253.71418945 195.65660645 254.00073242 196.76318359 C258.49211317 215.14037088 259.8607484 233.22297027 259.79150391 252.10058594 C259.7830091 255.61282399 259.81186551 259.12341959 259.84350586 262.63549805 C259.90759037 283.04654965 257.70483526 303.22315543 252.03295898 322.88354492 C251.5808606 324.49314087 251.5808606 324.49314087 251.11962891 326.13525391 C242.34259448 356.74182127 228.3099114 386.50931379 208.34545898 411.44604492 C207.70350586 412.2787793 207.06155273 413.11151367 206.40014648 413.96948242 C193.38132943 430.67784277 178.14593962 446.55802633 161.08862305 459.15161133 C159.31061027 460.47192277 157.55792228 461.82131503 155.80639648 463.17651367 C124.22761678 487.33929096 85.52509034 503.19954816 46.34545898 509.44604492 C45.34724121 509.60685547 44.34902344 509.76766602 43.32055664 509.93334961 C16.20429784 514.10243679 -11.58752597 513.80647769 -38.65454102 509.44604492 C-39.63084473 509.29039062 -40.60714844 509.13473633 -41.61303711 508.97436523 C-89.63341843 500.95094985 -132.18746276 478.13878419 -168.65454102 446.44604492 C-169.57750977 445.64811523 -170.50047852 444.85018555 -171.45141602 444.02807617 C-175.90564839 440.10700192 -180.02080103 436.11074008 -183.83813477 431.56713867 C-185.12374679 430.0658756 -186.45447689 428.60271289 -187.81469727 427.16870117 C-205.32638348 408.68888922 -219.0414135 386.51685707 -229.65454102 363.44604492 C-230.14083984 362.39876221 -230.14083984 362.39876221 -230.63696289 361.33032227 C-240.70019623 339.38443085 -246.9501409 316.26117761 -250.65454102 292.44604492 C-250.85152588 291.1846167 -250.85152588 291.1846167 -251.05249023 289.89770508 C-254.72790542 264.88116949 -253.66191906 238.32150283 -249.65454102 213.44604492 C-249.49888672 212.46974121 -249.34323242 211.4934375 -249.18286133 210.48754883 C-238.9236397 149.08580022 -203.64903668 89.84153207 -153.39770508 52.74047852 C-151.6196923 51.42016707 -149.86700431 50.07077482 -148.11547852 48.71557617 C-105.8515904 16.37699547 -52.89258783 -0.19401392 0 0 Z M-107.96704102 103.94604492 C-108.45817383 104.53385742 -108.94930664 105.12166992 -109.45532227 105.72729492 C-112.1056079 109.52574991 -111.7866808 113.43387163 -111.75892639 117.85894775 C-111.75821984 118.62019636 -111.75751329 119.38144496 -111.75678533 120.16576171 C-111.75340249 122.72438926 -111.74304288 125.2829437 -111.73291016 127.84155273 C-111.72939488 129.67297777 -111.72642752 131.50440393 -111.72396851 133.33583069 C-111.71828968 137.28419929 -111.71027437 141.23255425 -111.7009449 145.18091583 C-111.68778278 151.42521422 -111.68949503 157.66945074 -111.69517517 163.91375732 C-111.69609525 164.96719778 -111.69701533 166.02063824 -111.6979633 167.10600114 C-111.7009348 170.35085962 -111.70409986 173.59571788 -111.70727539 176.84057617 C-111.72007404 190.28974641 -111.72205292 203.73862508 -111.67871094 217.18774414 C-111.64722002 226.9920646 -111.64389975 236.79594107 -111.67347044 246.60027385 C-111.68802577 251.78916707 -111.68817713 256.97717241 -111.6540699 262.16599274 C-111.62225285 267.04852362 -111.62769538 271.92959793 -111.6615715 276.81210136 C-111.66738705 278.60233667 -111.65956396 280.39267702 -111.63698006 282.18277931 C-111.47748199 295.71555778 -111.47748199 295.71555778 -114.37597466 299.97686005 C-116.38404602 301.74658828 -118.37137829 303.06351899 -120.65454102 304.44604492 C-131.84541602 314.96347894 -137.88546659 330.93451713 -138.81469727 346.05151367 C-139.39790585 365.24668329 -132.30110806 382.15674823 -119.46704102 396.19604492 C-105.79651402 408.82949745 -88.57752073 415.07064873 -70.05297852 414.71948242 C-52.59297547 413.93953536 -36.53845047 405.7432815 -24.50610352 393.20776367 C-17.98087713 385.56999869 -12.63161433 376.3314115 -10.65454102 366.44604492 C-1.41454102 366.44604492 7.82545898 366.44604492 17.34545898 366.44604492 C17.3106543 369.03577148 17.27584961 371.62549805 17.23999023 374.29370117 C17.21655278 376.81899922 17.19836011 379.34428486 17.18066406 381.86962891 C17.16563469 383.61642943 17.14520544 385.36319257 17.11914062 387.10986328 C17.08249818 389.62957008 17.06567407 392.14877531 17.05249023 394.66870117 C17.03700638 395.44190201 17.02152252 396.21510284 17.00556946 397.01173401 C17.00400697 402.11608877 17.72515198 405.92795344 20.34545898 410.44604492 C25.60842299 415.11681575 30.28272449 415.01860955 37.12084961 414.96362305 C38.19473434 414.97063232 39.26861908 414.9776416 40.37504578 414.98486328 C43.91753147 415.00243876 47.45921545 414.99082137 51.00170898 414.97729492 C53.46740878 414.97998994 55.93310755 414.98387245 58.39880371 414.9888916 C63.56357961 414.99478608 68.72807858 414.98622489 73.89282227 414.9675293 C80.51068414 414.94474031 87.1278971 414.95786358 93.74573517 414.98181915 C98.83641442 414.99627818 103.92694001 414.99167054 109.0176239 414.98130798 C111.45765764 414.97864101 113.89770537 414.98190937 116.33772278 414.9912262 C119.74888018 415.00139295 123.15898898 414.98588726 126.57006836 414.96362305 C128.08046944 414.97576843 128.08046944 414.97576843 129.62138367 414.98815918 C135.31728478 414.91934027 138.9911074 414.50355214 143.34545898 410.44604492 C145.93779079 406.10347464 146.72137153 402.91274203 146.72640991 397.88049316 C146.73486938 396.57672226 146.74332886 395.27295135 146.75204468 393.92967224 C146.74621258 392.4969775 146.74006812 391.064284 146.73364258 389.6315918 C146.73771045 388.11336388 146.74305354 386.59513893 146.74957275 385.07691956 C146.76322658 380.96329271 146.75795575 376.84989207 146.7484355 372.73626137 C146.74082887 368.42691065 146.7478873 364.11757903 146.75259399 359.80822754 C146.75804862 352.57206757 146.75086763 345.33599952 146.73657227 338.09985352 C146.72024629 329.73940079 146.72553501 321.37916756 146.74205148 313.01872015 C146.7556747 305.83468166 146.75758193 298.65070917 146.74973547 291.46666193 C146.74506355 287.17853861 146.74442087 282.89051839 146.75434494 278.60240173 C146.76302451 274.57054836 146.75697475 270.5389774 146.73966217 266.50715446 C146.7357026 265.02934678 146.73682233 263.55151524 146.74345016 262.07371712 C146.75167586 260.05301906 146.73952097 258.03226894 146.72640991 256.01159668 C146.72527884 254.88189705 146.72414776 253.75219742 146.72298241 252.58826447 C146.18361109 248.09894539 144.71377771 244.68608377 141.34545898 241.63354492 C137.93442073 239.60824096 135.2033411 239.32293904 131.32324219 239.33251953 C130.30241043 239.33259506 129.28157867 239.33267059 128.22981262 239.33274841 C126.57969429 239.34049034 126.57969429 239.34049034 124.89624023 239.34838867 C123.76848679 239.34980362 122.64073334 239.35121857 121.47880554 239.35267639 C117.87182987 239.35828022 114.26491594 239.37083339 110.65795898 239.38354492 C108.2146005 239.38855943 105.77124105 239.39312242 103.32788086 239.3972168 C97.33371911 239.40825089 91.33959346 239.42499277 85.34545898 239.44604492 C85.36100327 238.41145142 85.37654755 237.37685791 85.39256287 236.31091309 C85.53470722 226.54207955 85.63951354 216.77345688 85.70814419 207.00382233 C85.74461528 201.98151924 85.79405265 196.96005358 85.87353516 191.93823242 C85.949815 187.08818888 85.99149532 182.23894872 86.00959969 177.38835144 C86.02249456 175.54155332 86.04767642 173.69479725 86.08556938 171.8483429 C86.76486115 160.73207001 86.76486115 160.73207001 82.51098633 150.96533203 C81.1475949 149.76313616 79.75589947 148.59267857 78.34545898 147.44604492 C76.57859575 145.66223091 74.82616741 143.86406045 73.08447266 142.05566406 C71.06836434 140.02326153 69.03993137 138.00323337 67.01342773 135.98120117 C65.92948579 134.89658425 64.84569221 133.81181904 63.76203918 132.72691345 C61.50704038 130.47045055 59.25026829 128.21578092 56.9921875 125.96240234 C54.09580491 123.0717576 51.20399079 120.17659037 48.31345654 117.28009892 C46.08398068 115.04701755 43.85213871 112.81631331 41.61956215 110.58633232 C40.55148205 109.5189194 39.48414456 108.45076288 38.41756248 107.3818531 C36.93393444 105.89569429 35.44715451 104.41276338 33.95947266 102.93066406 C32.69208504 101.66446983 32.69208504 101.66446983 31.39909363 100.37269592 C28.28257777 97.44888549 26.53609555 97.31910653 22.36187744 97.30560303 C21.30761566 97.29989288 20.25335388 97.29418274 19.16714478 97.28829956 C18.00556854 97.2871817 16.84399231 97.28606384 15.6472168 97.28491211 C14.42761261 97.2799472 13.20800842 97.2749823 11.95144653 97.26986694 C8.60001331 97.25774417 5.2486426 97.25029614 1.89719486 97.24585629 C-0.19707192 97.242926 -2.29133321 97.23882121 -4.38559723 97.23435211 C-10.93913267 97.2206733 -17.49265559 97.2110093 -24.04620433 97.20715022 C-31.6089108 97.20267245 -39.17143627 97.18513936 -46.73408771 97.15614963 C-52.58046168 97.13451789 -58.4267848 97.1244451 -64.27319837 97.1231091 C-67.76440463 97.12206186 -71.25544083 97.11617196 -74.74660492 97.09828949 C-78.64403592 97.0787153 -82.54124175 97.08310376 -86.4387207 97.08959961 C-87.59220001 97.08038483 -88.74567932 97.07117004 -89.93411255 97.06167603 C-97.42122312 97.10080813 -102.99446247 97.83419636 -107.96704102 103.94604492 Z " fill="#E63E31" transform="translate(252.654541015625,-0.446044921875)"/>
<path d="M0 0 C1.04181427 -0.00687332 2.08362854 -0.01374664 3.15701294 -0.02082825 C4.85525963 0.00613632 4.85525963 0.00613632 6.58781433 0.03364563 C7.78823364 0.0329155 8.98865295 0.03218536 10.22544861 0.03143311 C13.50853397 0.03431557 16.79054763 0.0593534 20.07341981 0.09430289 C23.5073442 0.1256033 26.94129066 0.12849999 30.37533569 0.13442993 C36.87420153 0.14995772 43.37264578 0.19097118 49.87132615 0.24117738 C57.27148347 0.29710447 64.67166114 0.32456571 72.07197726 0.34965456 C87.29132765 0.4018886 102.51009748 0.49356622 117.72917175 0.60127258 C117.72917175 12.15127258 117.72917175 23.70127258 117.72917175 35.60127258 C63.27917175 36.09627258 63.27917175 36.09627258 7.72917175 36.60127258 C7.39917175 38.25127258 7.06917175 39.90127258 6.72917175 41.60127258 C43.68917175 41.93127258 80.64917175 42.26127258 118.72917175 42.60127258 C119.71917175 44.58127258 120.70917175 46.56127258 121.72917175 48.60127258 C125.14938223 52.44102888 128.66537383 54.36336316 133.76670837 54.75949097 C134.48618652 54.77503525 135.20566467 54.79057953 135.94694519 54.80659485 C137.19483826 54.83686768 137.19483826 54.83686768 138.46794128 54.86775208 C139.33274109 54.88422791 140.19754089 54.90070374 141.08854675 54.91767883 C141.89050476 54.93632996 142.69246277 54.95498108 143.51872253 54.97419739 C146.50543024 55.0423336 149.49231361 55.10258522 152.47917175 55.16377258 C159.16167175 55.30814758 165.84417175 55.45252258 172.72917175 55.60127258 C172.72917175 82.00127258 172.72917175 108.40127258 172.72917175 135.60127258 C147.60417175 135.91377258 147.60417175 135.91377258 139.70133972 135.98921204 C137.62466137 136.0215096 135.54799936 136.0548844 133.47135925 136.08955383 C132.40087341 136.09579773 131.33038757 136.10204163 130.22746277 136.10847473 C122.49083734 136.17873305 122.49083734 136.17873305 115.72917175 139.60127258 C111.27285588 148.85989302 111.27285588 148.85989302 111.72917175 169.60127258 C60.24917175 170.09627258 60.24917175 170.09627258 7.72917175 170.60127258 C7.39917175 171.59127258 7.06917175 172.58127258 6.72917175 173.60127258 C8.26226897 175.1343698 9.65967708 174.74148141 11.79766846 174.75949097 C12.67411514 174.76927979 13.55056183 174.7790686 14.4535675 174.78915405 C15.42244904 174.79490952 16.39133057 174.80066498 17.38957214 174.80659485 C18.40408951 174.81649445 19.41860687 174.82639404 20.46386719 174.83659363 C23.83482996 174.86831386 27.20580686 174.89300749 30.576828 174.91767883 C32.90710833 174.93823928 35.23738485 174.9592355 37.56765747 174.98065186 C43.71450222 175.03596644 49.86138114 175.08533418 56.00828552 175.13349915 C62.27530475 175.18364581 68.54227406 175.23936747 74.80924988 175.29463196 C87.11584954 175.40232828 99.42249137 175.50323274 111.72917175 175.60127258 C111.72917175 188.14127258 111.72917175 200.68127258 111.72917175 213.60127258 C103.62354675 214.00346008 103.62354675 214.00346008 95.35417175 214.41377258 C93.67017273 214.53212463 91.98617371 214.65047668 90.25114441 214.77241516 C79.86122587 215.19286587 79.86122587 215.19286587 76.04734802 212.34577942 C73.51519954 209.73844487 71.55950117 206.89230182 69.67546082 203.7948761 C62.15661345 191.45743978 46.84870702 185.46772718 33.47135925 182.01924133 C19.40451378 179.8751495 6.062684 181.55919992 -6.96101379 187.17427063 C-8.05325256 187.64518127 -9.14549133 188.11609192 -10.27082825 188.60127258 C-10.38757828 164.82745106 -10.47577567 141.05367243 -10.52988911 117.27962208 C-10.55568166 106.2411523 -10.59085239 95.20286053 -10.64802551 84.164505 C-10.69782815 74.5445841 -10.73011161 64.92479209 -10.74127072 55.30474585 C-10.74779477 50.20992718 -10.76315013 45.11547733 -10.79947853 40.02077675 C-10.83338831 35.22647201 -10.84389133 30.43268841 -10.83636665 25.63827515 C-10.83774345 23.87782142 -10.84770591 22.11735046 -10.86685562 20.35700035 C-10.89171644 17.95400285 -10.88576051 15.55297546 -10.87210083 13.14993286 C-10.88666504 12.45245353 -10.90122924 11.7549742 -10.91623479 11.03635913 C-10.85921142 7.32797305 -10.31557636 5.66073425 -8.06267548 2.66706085 C-4.99981864 0.40074282 -3.7453545 -0.01912847 0 0 Z M7.72917175 80.60127258 C7.06917175 81.92127258 6.40917175 83.24127258 5.72917175 84.60127258 C7.56092171 86.85680526 7.56092171 86.85680526 10.27102089 86.84736824 C11.35320585 86.84552465 12.43539082 86.84368107 13.55036926 86.84178162 C15.40981422 86.84590561 15.40981422 86.84590561 17.30682373 86.85011292 C18.6880045 86.84303417 20.0691843 86.83576454 21.45036316 86.82832336 C22.89891553 86.82775947 24.34746847 86.82807539 25.79602051 86.82920837 C29.73590882 86.82978372 33.6756761 86.81800006 37.61553621 86.80406046 C41.73018059 86.79158336 45.84482754 86.79038499 49.95948792 86.78800964 C57.75450256 86.78178597 65.54946131 86.76536319 73.34445131 86.74531066 C82.21735609 86.72297923 91.09026349 86.71196518 99.96318936 86.70191979 C118.21854855 86.6809977 136.47385566 86.64580453 154.72917175 86.60127258 C155.38917175 85.28127258 156.04917175 83.96127258 156.72917175 82.60127258 C154.8974218 80.34573991 154.8974218 80.34573991 152.18732262 80.35517693 C151.10513765 80.35702051 150.02295269 80.3588641 148.90797424 80.36076355 C147.04852928 80.35663956 147.04852928 80.35663956 145.15151978 80.35243225 C143.77033901 80.359511 142.38915921 80.36678063 141.00798035 80.3742218 C139.55942798 80.3747857 138.11087503 80.37446977 136.662323 80.37333679 C132.72243468 80.37276144 128.7826674 80.38454511 124.84280729 80.39848471 C120.72816292 80.4109618 116.61351597 80.41216017 112.49885559 80.41453552 C104.70384094 80.4207592 96.9088822 80.43718198 89.1138922 80.4572345 C80.24098742 80.47956594 71.36808001 80.49057999 62.49515414 80.50062537 C44.23979495 80.52154747 25.98448784 80.55674064 7.72917175 80.60127258 Z M5.72917175 127.60127258 C6.05917175 128.59127258 6.38917175 129.58127258 6.72917175 130.60127258 C9.40537216 131.93937279 11.45631368 131.7333294 14.45425415 131.74171448 C15.67272034 131.74742462 16.89118652 131.75313477 18.14657593 131.75901794 C19.50410451 131.76026335 20.86163321 131.76138843 22.21916199 131.7624054 C23.64314401 131.76703263 25.0671248 131.77205717 26.49110413 131.77745056 C30.36503004 131.79058412 34.23893862 131.79702117 38.11288333 131.80146122 C40.53142516 131.80438991 42.94996223 131.80849428 45.36850166 131.81296539 C52.93063601 131.82664174 60.4927595 131.83630819 68.05490535 131.84016728 C76.79375168 131.84465103 85.53244183 131.86221292 94.27124065 131.89116788 C101.02031987 131.91275657 107.76935505 131.92287003 114.51846844 131.9242084 C118.5522744 131.9252583 122.58593358 131.93120515 126.61970329 131.94902802 C130.4126226 131.96546064 134.20528403 131.96768785 137.99822617 131.95888901 C139.39183681 131.95811608 140.78546106 131.96249483 142.17903709 131.97234726 C144.0783516 131.9849899 145.97776888 131.97742637 147.87710571 131.96876526 C148.94102256 131.97023182 150.0049394 131.97169838 151.10109615 131.97320938 C154.05480239 131.55518791 154.94186412 130.92873094 156.72917175 128.60127258 C156.39917175 127.61127258 156.06917175 126.62127258 155.72917175 125.60127258 C153.05297134 124.26317238 151.00202982 124.46921576 148.00408936 124.46083069 C146.78562317 124.45512054 145.56715698 124.4494104 144.31176758 124.44352722 C142.95423899 124.44228182 141.59671029 124.44115673 140.23918152 124.44013977 C138.81519949 124.43551253 137.39121871 124.430488 135.96723938 124.4250946 C132.09331346 124.41196104 128.21940488 124.405524 124.34546018 124.40108395 C121.92691835 124.39815526 119.50838128 124.39405088 117.08984184 124.38957977 C109.5277075 124.37590343 101.96558401 124.36623698 94.40343815 124.36237788 C85.66459182 124.35789414 76.92590168 124.34033225 68.18710285 124.31137729 C61.43802364 124.2897886 54.68898846 124.27967514 47.93987507 124.27833676 C43.9060691 124.27728687 39.87240992 124.27134001 35.83864021 124.25351715 C32.0457209 124.23708452 28.25305948 124.23485732 24.46011734 124.24365616 C23.06650669 124.24442908 21.67288245 124.24005033 20.27930641 124.23019791 C18.37999191 124.21755527 16.48057463 124.22511879 14.58123779 124.23377991 C13.51732095 124.23231335 12.4534041 124.23084679 11.35724735 124.22933578 C8.40354111 124.64735726 7.51647938 125.27381422 5.72917175 127.60127258 Z " fill="#E63E31" transform="translate(158.2708282470703,103.39872741699219)"/>
<path d="M0 0 C1.40074516 -0.00845947 1.40074516 -0.00845947 2.82978821 -0.01708984 C3.85738754 -0.01304138 4.88498688 -0.00899292 5.94372559 -0.00482178 C7.02345139 -0.00832642 8.10317719 -0.01183105 9.21562195 -0.01544189 C12.79888259 -0.0242731 16.38194717 -0.01840509 19.96520996 -0.01165771 C22.44620807 -0.01300396 24.92720592 -0.01494416 27.40820312 -0.01745605 C33.28129025 -0.02078801 39.15430574 -0.01376952 45.02738237 -0.00315452 C49.71615991 0.00435503 54.40485351 0.00169959 59.09362793 -0.0067749 C65.54740339 -0.01834076 72.00109749 -0.02019841 78.45487976 -0.01366425 C80.92054768 -0.01232632 83.38621903 -0.01398044 85.85188293 -0.01862335 C89.29274767 -0.02368004 92.73334929 -0.01599028 96.17419434 -0.00482178 C97.71559334 -0.01089447 97.71559334 -0.01089447 99.28813171 -0.01708984 C100.22196182 -0.0114502 101.15579193 -0.00581055 102.11791992 0 C102.93203087 0.00075405 103.74614182 0.0015081 104.58492279 0.002285 C106.55895996 0.25396729 106.55895996 0.25396729 108.55895996 2.25396729 C108.80784893 4.9464035 108.80784893 4.9464035 108.80619812 8.44134521 C108.80861254 9.08276065 108.81102695 9.72417609 108.81351453 10.38502836 C108.81917042 12.54391747 108.81047441 14.70251314 108.80187988 16.86138916 C108.8029523 18.40521831 108.80489038 19.94904706 108.80763245 21.49287415 C108.81249041 25.69320881 108.80481328 29.89343766 108.7946794 34.09375954 C108.78591417 38.48240672 108.78765605 42.87105044 108.78804016 47.25970459 C108.78710281 54.63069435 108.77840937 62.00164301 108.76477051 69.37261963 C108.74904424 77.90341524 108.74377237 86.43416582 108.74450606 94.96497488 C108.74511576 103.15982789 108.74001561 111.35466618 108.73171425 119.54951477 C108.72817712 123.04230362 108.72635039 126.53508726 108.72582054 130.02787781 C108.72481826 134.13837275 108.71873109 138.24882966 108.7086544 142.35931206 C108.7057259 143.87105006 108.70450474 145.38279243 108.70508194 146.89453316 C108.70557034 148.95192606 108.69993964 151.00921139 108.69267273 153.06658936 C108.69099689 154.21992012 108.68932104 155.37325089 108.68759441 156.56153107 C108.55895996 159.25396729 108.55895996 159.25396729 107.55895996 161.25396729 C104.75929418 162.18718921 103.05755729 162.38338568 100.16297913 162.39440918 C99.26432129 162.40011932 98.36566345 162.40582947 97.43977356 162.41171265 C95.96458504 162.41338943 95.96458504 162.41338943 94.45959473 162.4151001 C93.42194977 162.420065 92.38430481 162.42502991 91.31521606 162.43014526 C87.87692608 162.44477068 84.43868221 162.45156885 81.00036621 162.45709229 C78.61526996 162.46284255 76.23017373 162.4686003 73.84507751 162.47436523 C68.84239486 162.4848757 63.83972828 162.49071836 58.83703613 162.49420166 C52.41968204 162.49969249 46.00253947 162.52373306 39.58525181 162.55217361 C34.65853753 162.57077366 29.73187453 162.57600415 24.8051281 162.57753754 C22.43878966 162.58056955 20.07245223 162.58861642 17.70614815 162.60172272 C14.39984017 162.61873108 11.0940534 162.61691577 7.78771973 162.6104126 C6.80628494 162.61962738 5.82485016 162.62884216 4.81367493 162.63833618 C3.91219727 162.63276703 3.0107196 162.62719788 2.08192444 162.62145996 C1.30045327 162.62292652 0.51898211 162.62439308 -0.28617001 162.62590408 C-3.15976437 162.12991339 -4.44491038 161.39058405 -6.44104004 159.25396729 C-6.93881798 156.43848324 -6.93881798 156.43848324 -6.93551636 152.94633484 C-6.94034519 152.30406498 -6.94517402 151.66179511 -6.95014918 151.00006253 C-6.96143765 148.8439702 -6.94408983 146.68905941 -6.92687988 144.53302002 C-6.92902532 142.98904092 -6.93290237 141.44506339 -6.93838501 139.90109253 C-6.94809085 135.70483011 -6.93276049 131.50899218 -6.91247892 127.3127811 C-6.89493421 122.92681265 -6.89843248 118.54085783 -6.89920044 114.15486145 C-6.89732654 106.7897937 -6.87994967 99.42489061 -6.85266113 92.05987549 C-6.8211977 83.53641187 -6.81066528 75.01312858 -6.81213224 66.48961109 C-6.8133516 58.29954228 -6.8031525 50.1095324 -6.78654861 41.91948128 C-6.77947511 38.42948001 -6.775821 34.93949959 -6.7747612 31.4494915 C-6.77275672 27.34303655 -6.76058331 23.23673387 -6.74042892 19.13032913 C-6.73457199 17.62020995 -6.73212959 16.11007325 -6.733284 14.59994316 C-6.73426077 12.54481772 -6.7217514 10.48969882 -6.70846558 8.43461609 C-6.70511389 7.28258414 -6.7017622 6.1305522 -6.69830894 4.94361019 C-6.25302811 0.28837824 -4.16512786 0.00385785 0 0 Z M7.58099365 14.57533264 C5.85577542 17.40890957 6.18822196 20.17500878 6.19567871 23.44146729 C6.19518021 24.14038086 6.1946817 24.83929443 6.19416809 25.55938721 C6.19650605 27.035409 6.20621831 28.51143497 6.22277832 29.98736572 C6.24637532 32.24586661 6.24333726 34.5031869 6.23669434 36.76177979 C5.89995337 44.3875891 5.89995337 44.3875891 8.55895996 51.25396729 C11.29939437 51.55087996 13.81429795 51.65300587 16.55700684 51.62628174 C17.3831398 51.6299324 18.20927277 51.63358307 19.06044006 51.63734436 C21.79973713 51.645471 24.53844656 51.63182243 27.27770996 51.61724854 C29.17578125 51.61673018 31.07385307 51.61724692 32.97192383 51.61875916 C36.9533284 51.61866934 40.93453089 51.60822042 44.91589355 51.59014893 C50.02749875 51.56746143 55.13880845 51.56691662 60.25045013 51.57366657 C64.17086427 51.57700299 68.09121064 51.57038265 72.01161194 51.56053734 C73.89673 51.55667939 75.78185559 51.55553957 77.66697693 51.55712318 C80.29843591 51.55749273 82.92951152 51.54490484 85.56091309 51.52862549 C86.34539322 51.53110291 87.12987335 51.53358032 87.93812561 51.53613281 C92.21067594 51.64704072 92.21067594 51.64704072 95.55895996 49.25396729 C95.75852966 46.69646276 95.83882823 44.24958588 95.82458496 41.69146729 C95.82649841 40.944375 95.82841187 40.19728271 95.8303833 39.42755127 C95.83174494 37.84722558 95.82804996 36.2668887 95.81970215 34.68658447 C95.80900196 32.26347806 95.81959775 29.84111305 95.83239746 27.41802979 C95.83107586 25.88417398 95.82851346 24.35031863 95.82458496 22.81646729 C95.82863342 22.08935547 95.83268188 21.36224365 95.83685303 20.61309814 C95.92627498 16.47927096 95.92627498 16.47927096 93.55895996 13.25396729 C90.89484151 13.05025131 88.33423769 12.97077198 85.6685791 12.97930908 C84.853806 12.97419815 84.0390329 12.96908722 83.1995697 12.96382141 C80.49767781 12.94988513 77.79603984 12.95088521 75.09411621 12.95318604 C73.22085983 12.94930125 71.34760432 12.94496704 69.47434998 12.94020081 C65.54427233 12.93272987 61.6142845 12.93303614 57.6842041 12.93829346 C52.64214331 12.94408858 47.60044979 12.92716032 42.55844975 12.90394878 C38.68861228 12.88923293 34.8188637 12.88833682 30.94900322 12.89145851 C29.08982046 12.89094419 27.23063286 12.88568583 25.37147713 12.87564659 C22.77365225 12.86334126 20.17654826 12.87003807 17.57873535 12.88165283 C16.42143417 12.87018723 16.42143417 12.87018723 15.24075317 12.85848999 C11.18130134 12.88834468 11.18130134 12.88834468 7.58099365 14.57533264 Z M6.55895996 62.25396729 C6.11538812 64.43872909 6.11538812 64.43872909 6.19567871 66.85162354 C6.19632324 67.73527588 6.19696777 68.61892822 6.19763184 69.52935791 C6.21374512 70.449104 6.2298584 71.3688501 6.24645996 72.31646729 C6.2432373 73.24008057 6.24001465 74.16369385 6.23669434 75.11529541 C5.97565106 80.21324673 5.97565106 80.21324673 8.55895996 84.25396729 C10.78931294 84.53137973 10.78931294 84.53137973 13.34802246 84.44927979 C14.7595459 84.43961182 14.7595459 84.43961182 16.19958496 84.42974854 C17.18442871 84.41299072 18.16927246 84.39623291 19.18395996 84.37896729 C20.17653809 84.36994385 21.16911621 84.36092041 22.19177246 84.35162354 C24.6477413 84.32800845 27.10323164 84.29507528 29.55895996 84.25396729 C31.44415525 80.48357671 30.7437199 75.90242134 30.74645996 71.75396729 C30.7648291 70.29023682 30.7648291 70.29023682 30.78356934 68.79693604 C30.78550293 67.86494385 30.78743652 66.93295166 30.78942871 65.97271729 C30.79559204 64.68784424 30.79559204 64.68784424 30.80187988 63.37701416 C30.75720729 61.0374546 30.75720729 61.0374546 28.55895996 59.25396729 C25.4334984 58.80769945 22.27516156 58.92986426 19.12145996 58.94146729 C17.81338379 58.91729736 17.81338379 58.91729736 16.47888184 58.89263916 C15.64034668 58.89199463 14.80181152 58.8913501 13.93786621 58.89068604 C12.78653198 58.8862146 12.78653198 58.8862146 11.61193848 58.88165283 C8.96697504 59.36132571 8.10546976 60.06902341 6.55895996 62.25396729 Z M39.55895996 61.25396729 C39.26486846 63.56501003 39.26486846 63.56501003 39.32849121 66.22662354 C39.3304248 67.20824463 39.3323584 68.18986572 39.33435059 69.20123291 C39.34659668 70.22926025 39.35884277 71.2572876 39.37145996 72.31646729 C39.37210449 73.34836182 39.37274902 74.38025635 39.37341309 75.44342041 C38.95487685 80.19436975 38.95487685 80.19436975 40.55895996 84.25396729 C42.10851555 84.35296252 43.66249669 84.38476253 45.21520996 84.38677979 C46.15493652 84.38806885 47.09466309 84.38935791 48.06286621 84.39068604 C49.54593262 84.38488525 49.54593262 84.38488525 51.05895996 84.37896729 C52.0476709 84.38283447 53.03638184 84.38670166 54.05505371 84.39068604 C55.46464355 84.38875244 55.46464355 84.38875244 56.90270996 84.38677979 C58.20498535 84.38508789 58.20498535 84.38508789 59.53356934 84.38336182 C61.5550015 84.47812098 61.5550015 84.47812098 62.55895996 83.25396729 C62.81052265 79.61497553 62.74418222 75.96313056 62.74645996 72.31646729 C62.7648291 70.77442627 62.7648291 70.77442627 62.78356934 69.20123291 C62.78550293 68.21961182 62.78743652 67.23799072 62.78942871 66.22662354 C62.7935376 65.32178223 62.79764648 64.41694092 62.80187988 63.48468018 C62.77237293 61.04977951 62.77237293 61.04977951 60.55895996 59.25396729 C58.55874027 58.94450823 58.55874027 58.94450823 56.27770996 58.98834229 C55.43595215 58.98576416 54.59419434 58.98318604 53.72692871 58.98052979 C52.84649902 58.98826416 51.96606934 58.99599854 51.05895996 59.00396729 C49.73831543 58.99236572 49.73831543 58.99236572 48.39099121 58.98052979 C47.5492334 58.98310791 46.70747559 58.98568604 45.84020996 58.98834229 C44.68102051 58.99172607 44.68102051 58.99172607 43.49841309 58.99517822 C41.32228935 59.08572355 41.32228935 59.08572355 39.55895996 61.25396729 Z M71.55895996 61.25396729 C71.26515174 63.45068611 71.26515174 63.45068611 71.32849121 65.97271729 C71.3304248 66.90470947 71.3323584 67.83670166 71.33435059 68.79693604 C71.34659668 69.77275635 71.35884277 70.74857666 71.37145996 71.75396729 C71.37210449 72.7297876 71.37274902 73.70560791 71.37341309 74.71099854 C71.20757528 79.64375043 71.20757528 79.64375043 72.55895996 84.25396729 C79.81895996 84.25396729 87.07895996 84.25396729 94.55895996 84.25396729 C96.44415525 80.48357671 95.7437199 75.90242134 95.74645996 71.75396729 C95.7648291 70.29023682 95.7648291 70.29023682 95.78356934 68.79693604 C95.78550293 67.86494385 95.78743652 66.93295166 95.78942871 65.97271729 C95.79559204 64.68784424 95.79559204 64.68784424 95.80187988 63.37701416 C95.75720729 61.0374546 95.75720729 61.0374546 93.55895996 59.25396729 C91.46082615 58.94412198 91.46082615 58.94412198 89.05895996 58.98834229 C87.72864746 58.9844751 87.72864746 58.9844751 86.37145996 58.98052979 C85.44333496 58.98826416 84.51520996 58.99599854 83.55895996 59.00396729 C82.16677246 58.99236572 82.16677246 58.99236572 80.74645996 58.98052979 C79.85958496 58.98310791 78.97270996 58.98568604 78.05895996 58.98834229 C77.24427246 58.99059814 76.42958496 58.992854 75.59020996 58.99517822 C73.33265545 59.07222435 73.33265545 59.07222435 71.55895996 61.25396729 Z M8.55895996 91.25396729 C6.44919236 94.41861869 6.30343391 95.22790501 6.29333496 98.85162354 C6.29075684 99.73527588 6.28817871 100.61892822 6.28552246 101.52935791 C6.29325684 102.449104 6.30099121 103.3688501 6.30895996 104.31646729 C6.2973584 105.70188721 6.2973584 105.70188721 6.28552246 107.11529541 C6.28810059 107.99765869 6.29067871 108.88002197 6.29333496 109.78912354 C6.29559082 110.59744629 6.29784668 111.40576904 6.3001709 112.23858643 C6.37953364 114.48206785 6.37953364 114.48206785 8.55895996 116.25396729 C10.65709377 116.5638126 10.65709377 116.5638126 13.05895996 116.51959229 C14.38927246 116.52345947 14.38927246 116.52345947 15.74645996 116.52740479 C17.13864746 116.51580322 17.13864746 116.51580322 18.55895996 116.50396729 C19.48708496 116.51170166 20.41520996 116.51943604 21.37145996 116.52740479 C22.25833496 116.52482666 23.14520996 116.52224854 24.05895996 116.51959229 C25.28099121 116.5162085 25.28099121 116.5162085 26.52770996 116.51275635 C28.78526447 116.43571022 28.78526447 116.43571022 30.55895996 114.25396729 C30.86915692 112.05793934 30.86915692 112.05793934 30.82458496 109.53521729 C30.82716309 108.6032251 30.82974121 107.67123291 30.83239746 106.71099854 C30.82466309 105.73517822 30.81692871 104.75935791 30.80895996 103.75396729 C30.81669434 102.77814697 30.82442871 101.80232666 30.83239746 100.79693604 C30.82981934 99.86494385 30.82724121 98.93295166 30.82458496 97.97271729 C30.8223291 97.11613525 30.82007324 96.25955322 30.81774902 95.37701416 C30.75397568 93.03808181 30.75397568 93.03808181 28.55895996 91.25396729 C25.24540236 90.80592013 21.89936133 90.92986867 18.55895996 90.94146729 C17.16677246 90.91729736 17.16677246 90.91729736 15.74645996 90.89263916 C14.85958496 90.89199463 13.97270996 90.8913501 13.05895996 90.89068604 C12.24427246 90.88770508 11.42958496 90.88472412 10.59020996 90.88165283 C9.91989746 91.0045166 9.24958496 91.12738037 8.55895996 91.25396729 Z M39.55895996 93.25396729 C39.26486846 95.56501003 39.26486846 95.56501003 39.32849121 98.22662354 C39.3304248 99.20824463 39.3323584 100.18986572 39.33435059 101.20123291 C39.34659668 102.22926025 39.35884277 103.2572876 39.37145996 104.31646729 C39.37210449 105.34836182 39.37274902 106.38025635 39.37341309 107.44342041 C38.95487685 112.19436975 38.95487685 112.19436975 40.55895996 116.25396729 C42.10851555 116.35296252 43.66249669 116.38476253 45.21520996 116.38677979 C46.15493652 116.38806885 47.09466309 116.38935791 48.06286621 116.39068604 C49.54593262 116.38488525 49.54593262 116.38488525 51.05895996 116.37896729 C52.0476709 116.38283447 53.03638184 116.38670166 54.05505371 116.39068604 C55.46464355 116.38875244 55.46464355 116.38875244 56.90270996 116.38677979 C58.20498535 116.38508789 58.20498535 116.38508789 59.53356934 116.38336182 C61.5550015 116.47812098 61.5550015 116.47812098 62.55895996 115.25396729 C62.64609828 113.54624371 62.66596003 111.8349808 62.65661621 110.12506104 C62.65178223 108.57335205 62.65178223 108.57335205 62.64685059 106.99029541 C62.63847168 105.90168213 62.63009277 104.81306885 62.62145996 103.69146729 C62.61694824 102.59898682 62.61243652 101.50650635 62.60778809 100.38092041 C62.59595823 97.67188233 62.57947539 94.96295129 62.55895996 92.25396729 C59.02292036 90.48594748 54.95324742 91.06931815 51.05895996 91.06646729 C50.17853027 91.05422119 49.29810059 91.0419751 48.39099121 91.02935791 C47.12835449 91.02645752 47.12835449 91.02645752 45.84020996 91.02349854 C45.06741699 91.01938965 44.29462402 91.01528076 43.49841309 91.01104736 C41.32156284 91.08220112 41.32156284 91.08220112 39.55895996 93.25396729 Z M71.55895996 93.25396729 C71.25263923 95.58476156 71.25263923 95.58476156 71.3001709 98.31451416 C71.29386658 99.36900757 71.28756226 100.42350098 71.28106689 101.50994873 C71.28511536 102.65266235 71.28916382 103.79537598 71.29333496 104.97271729 C71.29142151 106.14153442 71.28950806 107.31035156 71.28753662 108.5145874 C71.2861737 110.98940241 71.28987755 113.46422455 71.29821777 115.93902588 C71.3089155 119.73817933 71.29832578 123.53685988 71.28552246 127.33599854 C71.28684404 129.73573917 71.28940639 132.1354795 71.29333496 134.53521729 C71.2892865 135.67793091 71.28523804 136.82064453 71.28106689 137.99798584 C71.28737122 139.05247925 71.29367554 140.10697266 71.3001709 141.19342041 C71.30176208 142.12448608 71.30335327 143.05555176 71.30499268 144.01483154 C71.34651034 146.45679191 71.34651034 146.45679191 73.55895996 148.25396729 C75.65709377 148.5638126 75.65709377 148.5638126 78.05895996 148.51959229 C79.38927246 148.52345947 79.38927246 148.52345947 80.74645996 148.52740479 C81.67458496 148.51967041 82.60270996 148.51193604 83.55895996 148.50396729 C84.48708496 148.51170166 85.41520996 148.51943604 86.37145996 148.52740479 C87.25833496 148.52482666 88.14520996 148.52224854 89.05895996 148.51959229 C89.87364746 148.51733643 90.68833496 148.51508057 91.52770996 148.51275635 C93.78526447 148.43571022 93.78526447 148.43571022 95.55895996 146.25396729 C95.86528069 143.92317301 95.86528069 143.92317301 95.81774902 141.19342041 C95.82405334 140.138927 95.83035767 139.08443359 95.83685303 137.99798584 C95.83280457 136.85527222 95.8287561 135.71255859 95.82458496 134.53521729 C95.82649841 133.36640015 95.82841187 132.19758301 95.8303833 130.99334717 C95.83174622 128.51853216 95.82804237 126.04371002 95.81970215 123.56890869 C95.80900442 119.76975524 95.81959414 115.97107469 95.83239746 112.17193604 C95.83107589 109.7721954 95.82851353 107.37245507 95.82458496 104.97271729 C95.82863342 103.83000366 95.83268188 102.68729004 95.83685303 101.50994873 C95.83054871 100.45545532 95.82424438 99.40096191 95.81774902 98.31451416 C95.81615784 97.38344849 95.81456665 96.45238281 95.81292725 95.49310303 C95.77140958 93.05114266 95.77140958 93.05114266 93.55895996 91.25396729 C91.46082615 90.94412198 91.46082615 90.94412198 89.05895996 90.98834229 C87.72864746 90.9844751 87.72864746 90.9844751 86.37145996 90.98052979 C85.44333496 90.98826416 84.51520996 90.99599854 83.55895996 91.00396729 C82.16677246 90.99236572 82.16677246 90.99236572 80.74645996 90.98052979 C79.85958496 90.98310791 78.97270996 90.98568604 78.05895996 90.98834229 C77.24427246 90.99059814 76.42958496 90.992854 75.59020996 90.99517822 C73.33265545 91.07222435 73.33265545 91.07222435 71.55895996 93.25396729 Z M8.55895996 123.25396729 C6.48960419 126.35800094 6.30378087 127.07296748 6.29333496 130.59771729 C6.29075684 131.43174072 6.28817871 132.26576416 6.28552246 133.12506104 C6.29325684 133.9926001 6.30099121 134.86013916 6.30895996 135.75396729 C6.30122559 136.62150635 6.29349121 137.48904541 6.28552246 138.38287354 C6.28810059 139.21689697 6.29067871 140.05092041 6.29333496 140.91021729 C6.29559082 141.67140869 6.29784668 142.4326001 6.3001709 143.21685791 C6.44484685 145.56533474 6.44484685 145.56533474 8.55895996 148.25396729 C10.65074938 148.70172331 10.65074938 148.70172331 13.05895996 148.61724854 C13.94583496 148.616604 14.83270996 148.61595947 15.74645996 148.61529541 C16.67458496 148.59918213 17.60270996 148.58306885 18.55895996 148.56646729 C19.48708496 148.56968994 20.41520996 148.5729126 21.37145996 148.57623291 C26.49508652 148.84096565 26.49508652 148.84096565 30.55895996 146.25396729 C30.86915692 144.05793934 30.86915692 144.05793934 30.82458496 141.53521729 C30.82716309 140.6032251 30.82974121 139.67123291 30.83239746 138.71099854 C30.82466309 137.73517822 30.81692871 136.75935791 30.80895996 135.75396729 C30.81669434 134.77814697 30.82442871 133.80232666 30.83239746 132.79693604 C30.82981934 131.86494385 30.82724121 130.93295166 30.82458496 129.97271729 C30.8223291 129.11613525 30.82007324 128.25955322 30.81774902 127.37701416 C30.75397568 125.03808181 30.75397568 125.03808181 28.55895996 123.25396729 C25.24540236 122.80592013 21.89936133 122.92986867 18.55895996 122.94146729 C17.16677246 122.91729736 17.16677246 122.91729736 15.74645996 122.89263916 C14.85958496 122.89199463 13.97270996 122.8913501 13.05895996 122.89068604 C12.24427246 122.88770508 11.42958496 122.88472412 10.59020996 122.88165283 C9.91989746 123.0045166 9.24958496 123.12738037 8.55895996 123.25396729 Z M39.55895996 124.25396729 C39.47182165 125.96169086 39.45195989 127.67295377 39.46130371 129.38287354 C39.46452637 130.41734619 39.46774902 131.45181885 39.47106934 132.51763916 C39.47944824 133.60625244 39.48782715 134.69486572 39.49645996 135.81646729 C39.50097168 136.90894775 39.5054834 138.00142822 39.51013184 139.12701416 C39.5219617 141.83605224 39.53844453 144.54498328 39.55895996 147.25396729 C41.94334705 148.44616083 43.43551998 148.38312751 46.09411621 148.38677979 C46.98550293 148.38806885 47.87688965 148.38935791 48.79528809 148.39068604 C49.7279248 148.38681885 50.66056152 148.38295166 51.62145996 148.37896729 C52.55796387 148.38283447 53.49446777 148.38670166 54.45935059 148.39068604 C55.34944824 148.38939697 56.2395459 148.38810791 57.15661621 148.38677979 C58.38650269 148.38508789 58.38650269 148.38508789 59.64123535 148.38336182 C61.56760763 148.46461972 61.56760763 148.46461972 62.55895996 147.25396729 C62.6582815 145.55838003 62.68976003 143.85870981 62.69177246 142.16021729 C62.69306152 141.13025635 62.69435059 140.10029541 62.69567871 139.03912354 C62.68987793 137.41297119 62.68987793 137.41297119 62.68395996 135.75396729 C62.68782715 134.66986572 62.69169434 133.58576416 62.69567871 132.46881104 C62.69374512 130.92386963 62.69374512 130.92386963 62.69177246 129.34771729 C62.69064453 128.39574463 62.6895166 127.44377197 62.68835449 126.46295166 C62.80595453 124.27944591 62.80595453 124.27944591 61.55895996 123.25396729 C60.00940437 123.15497205 58.45542323 123.12317204 56.90270996 123.12115479 C55.49312012 123.11922119 55.49312012 123.11922119 54.05505371 123.11724854 C53.06634277 123.12111572 52.07763184 123.12498291 51.05895996 123.12896729 C50.07024902 123.1251001 49.08153809 123.12123291 48.06286621 123.11724854 C46.65327637 123.11918213 46.65327637 123.11918213 45.21520996 123.12115479 C43.91293457 123.12284668 43.91293457 123.12284668 42.58435059 123.12457275 C40.56291842 123.02981359 40.56291842 123.02981359 39.55895996 124.25396729 Z " fill="#E53E31" transform="translate(283.4410400390625,245.74603271484375)"/>
<path d="M0 0 C0.763125 0.20625 1.52625 0.4125 2.3125 0.625 C2.6425 2.605 2.9725 4.585 3.3125 6.625 C4.1375 6.686875 4.9625 6.74875 5.8125 6.8125 C12.41573177 8.34539309 17.72829032 11.95979269 21.48046875 17.64453125 C22.98542284 21.22674591 22.7005692 24.82192186 22.3125 28.625 C20.6625 29.285 19.0125 29.945 17.3125 30.625 C14.82853538 28.44047221 13.9365667 26.86664474 13.125 23.6875 C11.3682636 18.59520609 11.3682636 18.59520609 3.3125 15.625 C3.3125 22.885 3.3125 30.145 3.3125 37.625 C5.2925 37.955 7.2725 38.285 9.3125 38.625 C14.42249681 41.08904377 19.21351301 44.35936344 21.72265625 49.57421875 C23.30595615 55.07906939 23.39030913 61.20982988 20.875 66.4375 C17.35202456 71.64047085 11.75530578 75.02501262 5.75 76.5 C4.945625 76.54125 4.14125 76.5825 3.3125 76.625 C3.168125 77.429375 3.02375 78.23375 2.875 79.0625 C2.3125 81.625 2.3125 81.625 1.3125 82.625 C-0.68708364 82.66580783 -2.68795254 82.66754356 -4.6875 82.625 C-5.0175 80.645 -5.3475 78.665 -5.6875 76.625 C-6.5125 76.563125 -7.3375 76.50125 -8.1875 76.4375 C-14.75372859 74.91319694 -19.99471886 71.30620176 -23.6875 65.625 C-25.60613912 61.88365371 -26.15385735 58.82221611 -25.6875 54.625 C-22.6875 52.625 -22.6875 52.625 -20 53 C-19.236875 53.20625 -18.47375 53.4125 -17.6875 53.625 C-17.54054687 54.22828125 -17.39359375 54.8315625 -17.2421875 55.453125 C-16.00819343 59.85011537 -15.28571658 62.12648619 -11.6875 65.125 C-8.74642557 66.68392557 -8.74642557 66.68392557 -5.6875 67.625 C-5.6875 60.365 -5.6875 53.105 -5.6875 45.625 C-10.6375 44.14 -10.6375 44.14 -15.6875 42.625 C-21.03020023 38.89359032 -23.78100998 36.01734891 -25.6875 29.625 C-26.24475167 24.42398446 -25.61169245 20.01128868 -22.6875 15.625 C-19.00710399 11.69765101 -15.02111198 7.95840299 -9.6875 6.625 C-8.3675 6.625 -7.0475 6.625 -5.6875 6.625 C-5.749375 5.84125 -5.81125 5.0575 -5.875 4.25 C-5.7821875 2.950625 -5.7821875 2.950625 -5.6875 1.625 C-2.6875 -0.375 -2.6875 -0.375 0 0 Z M-14.6875 19.625 C-17.18781654 23.37547482 -17.22353554 25.18356266 -16.6875 29.625 C-13.27270467 34.14458205 -11.29701022 34.75516326 -5.6875 36.625 C-5.6875 29.695 -5.6875 22.765 -5.6875 15.625 C-9.73914344 15.625 -11.48287442 17.23857669 -14.6875 19.625 Z M3.3125 46.625 C3.3125 53.555 3.3125 60.485 3.3125 67.625 C9.39198778 65.59850407 11.04619134 64.87088966 14.3125 59.625 C14.46915271 55.16039767 13.81591341 53.26825047 11.0625 49.75 C8.20801548 47.21896523 8.20801548 47.21896523 3.3125 46.625 Z " fill="#E63E31" transform="translate(180.6875,307.375)"/>
<path d="M0 0 C9.9 0 19.8 0 30 0 C30 11.88 30 23.76 30 36 C21.42 36 12.84 36 4 36 C3.896875 32.596875 3.79375 29.19375 3.6875 25.6875 C3.41505328 18.4887819 2.97167876 11.79758719 0.62109375 4.92578125 C0 3 0 3 0 0 Z " fill="#E53E31" transform="translate(240,324)"/>
</svg>
